<svg width="51" height="114" viewBox="0 0 51 114" fill="none" xmlns="http://www.w3.org/2000/svg">
<path d="M49.4713 101.178V98.1789H48.6359C49.0222 97.6344 49.2286 96.9817 49.2259 96.3129C49.2365 95.9147 49.169 95.5183 49.027 95.1463C48.8851 94.7743 48.6717 94.4341 48.3989 94.1451C48.1261 93.856 47.7994 93.6239 47.4373 93.4618C47.0752 93.2998 46.6849 93.2111 46.2887 93.2007H46.1428V42.8184C46.8205 42.6487 47.4222 42.2561 47.8522 41.703C48.2822 41.1499 48.5158 40.4681 48.5158 39.7662C48.5158 39.0642 48.2822 38.3824 47.8522 37.8293C47.4222 37.2762 46.8205 36.8836 46.1428 36.7139V32.542C46.8828 32.4327 47.559 32.0595 48.0479 31.4905C48.5368 30.9216 48.8058 30.1949 48.8058 29.4431C48.8058 28.6914 48.5368 27.9647 48.0479 27.3957C47.559 26.8268 46.8828 26.4536 46.1428 26.3442V21.4793C46.8828 21.3699 47.559 20.9967 48.0479 20.4277C48.5368 19.8588 48.8058 19.1321 48.8058 18.3803C48.8058 17.6286 48.5368 16.9019 48.0479 16.333C47.559 15.764 46.8828 15.3908 46.1428 15.2814V9.57012C47.1387 9.44198 48.0513 8.94491 48.7018 8.17618C49.3523 7.40745 49.6939 6.42238 49.6599 5.41378C49.6259 4.40519 49.2187 3.44565 48.5179 2.72294C47.8171 2.00023 46.8732 1.56637 45.871 1.50629C44.9218 1.52803 44.0136 1.89889 43.3183 2.54862C42.623 3.19836 42.1889 4.08184 42.0983 5.03172H39.3599C39.2804 4.07919 38.8479 3.19142 38.1479 2.54437C37.4479 1.89732 36.5316 1.53822 35.5806 1.53822C34.6296 1.53822 33.7133 1.89732 33.0133 2.54437C32.3133 3.19142 31.8807 4.07919 31.8012 5.03172H30.8133C30.7653 3.68092 30.1976 2.40156 29.2298 1.46303C28.2621 0.52449 26.9698 0 25.625 0C24.2802 0 22.9879 0.52449 22.0202 1.46303C21.0524 2.40156 20.4847 3.68092 20.4367 5.03172H19.5151C19.4458 4.07272 19.0178 3.17565 18.3173 2.52084C17.6168 1.86603 16.6957 1.50203 15.739 1.50203C14.7824 1.50203 13.8613 1.86603 13.1608 2.52084C12.4602 3.17565 12.0323 4.07272 11.963 5.03172H9.2114C9.12076 4.08184 8.68669 3.19836 7.99138 2.54862C7.29608 1.89889 6.38782 1.52803 5.43869 1.50629C4.40042 1.54867 3.4187 1.99306 2.69899 2.74643C1.97928 3.4998 1.57735 4.50375 1.57735 5.5482C1.57735 6.59264 1.97928 7.59662 2.69899 8.34999C3.4187 9.10335 4.40042 9.54772 5.43869 9.59011V15.2681C4.65249 15.3199 3.91533 15.6703 3.37672 16.2482C2.83811 16.8262 2.53841 17.5884 2.53841 18.3803C2.53841 19.1723 2.83811 19.9345 3.37672 20.5125C3.91533 21.0905 4.65249 21.4409 5.43869 21.4926V26.3375C4.65249 26.3893 3.91533 26.7397 3.37672 27.3177C2.83811 27.8956 2.53841 28.6579 2.53841 29.4498C2.53841 30.2417 2.83811 31.004 3.37672 31.5819C3.91533 32.1599 4.65249 32.5103 5.43869 32.562V36.6739C5.33714 36.6671 5.23523 36.6671 5.13368 36.6739C4.34748 36.7257 3.61031 37.0761 3.07171 37.654C2.5331 38.232 2.23339 38.9942 2.23339 39.7861C2.23339 40.5781 2.5331 41.3403 3.07171 41.9183C3.61031 42.4963 4.34748 42.8466 5.13368 42.8984C5.23523 42.9052 5.33714 42.9052 5.43869 42.8984V93.274C4.72126 93.3996 4.07221 93.779 3.60889 94.3437C3.14557 94.9084 2.89854 95.6211 2.9125 96.3529C2.90987 97.0217 3.1163 97.6744 3.50262 98.2189H1.77869V101.218H0.625V114H50.625V101.178H49.4713ZM45.261 9.53013V15.3414C44.6652 15.4866 44.1274 15.8103 43.7188 16.2697C43.3103 16.7291 43.0503 17.3025 42.9735 17.9138H38.4714C38.3909 17.275 38.1105 16.6783 37.6708 16.21C37.2311 15.7417 36.6547 15.4259 36.0248 15.3081V9.5568C36.8977 9.42297 37.7001 8.99671 38.3019 8.34714C38.9036 7.69757 39.2694 6.86277 39.34 5.97806H42.0519C42.125 6.84198 42.4788 7.65772 43.0587 8.29961C43.6386 8.94149 44.4125 9.37388 45.261 9.53013ZM42.6685 39.293H38.4714C38.3906 38.655 38.11 38.0593 37.6702 37.5921C37.2304 37.1249 36.6542 36.8103 36.0248 36.6939V32.5154C36.6547 32.3976 37.2311 32.0818 37.6708 31.6135C38.1105 31.1451 38.3909 30.5485 38.4714 29.9096H42.9735C43.0509 30.5215 43.3108 31.0954 43.7192 31.5558C44.1275 32.0162 44.6651 32.3415 45.261 32.4887V36.6672C44.6012 36.7561 43.9891 37.0618 43.5202 37.5367C43.0513 38.0117 42.7519 38.6292 42.6685 39.293ZM17.3801 86.1698C17.3093 85.8155 17.1443 85.4871 16.9026 85.2196C16.6609 84.952 16.3516 84.7553 16.0076 84.6504V51.3288C16.3413 51.2178 16.6398 51.02 16.8728 50.7555C17.1057 50.4909 17.2647 50.169 17.3337 49.8226H23.7453C23.8198 50.1882 23.9947 50.5256 24.2502 50.7965C24.5056 51.0674 24.8314 51.261 25.1907 51.3554V56.8468C24.7621 56.975 24.3862 57.2388 24.1189 57.5991C23.8517 57.9593 23.7073 58.3967 23.7073 58.8461C23.7073 59.2955 23.8517 59.7329 24.1189 60.0931C24.3862 60.4534 24.7621 60.7172 25.1907 60.8454V65.9769C24.7621 66.1051 24.3862 66.369 24.1189 66.7292C23.8517 67.0895 23.7073 67.5268 23.7073 67.9762C23.7073 68.4256 23.8517 68.863 24.1189 69.2232C24.3862 69.5835 24.7621 69.8473 25.1907 69.9755V75.3469C24.7621 75.4751 24.3862 75.739 24.1189 76.0992C23.8517 76.4595 23.7073 76.8968 23.7073 77.3462C23.7073 77.7956 23.8517 78.233 24.1189 78.5933C24.3862 78.9535 24.7621 79.2174 25.1907 79.3455V84.597C24.8314 84.6914 24.5056 84.8851 24.2502 85.156C23.9947 85.4268 23.8198 85.7642 23.7453 86.1298L17.3801 86.1698ZM18.3349 40.2326H22.7242C22.8055 40.8734 23.0878 41.4714 23.5301 41.9399C23.9724 42.4085 24.5518 42.7232 25.1841 42.8384V47.3635C24.8248 47.4579 24.499 47.6515 24.2436 47.9224C23.9881 48.1933 23.8132 48.5306 23.7386 48.8963H17.3337C17.2647 48.5498 17.1057 48.228 16.8728 47.9634C16.6398 47.6988 16.3413 47.5011 16.0076 47.3902V42.8251C16.6132 42.685 17.1612 42.3611 17.5775 41.8974C17.9938 41.4337 18.2582 40.8525 18.3349 40.2326ZM16.0076 36.7072V32.542C16.68 32.4676 17.3077 32.1671 17.7891 31.6893C18.2704 31.2116 18.5772 30.5845 18.6597 29.9096H22.7441C22.8244 30.5507 23.1063 31.1493 23.5488 31.618C23.9913 32.0867 24.5712 32.4011 25.204 32.5154V36.6939C24.5722 36.8078 23.993 37.1212 23.5506 37.5886C23.1082 38.056 22.8257 38.6531 22.7441 39.293H18.3547C18.2764 38.6714 18.0089 38.0892 17.5887 37.6263C17.1686 37.1635 16.6163 36.8424 16.0076 36.7072ZM16.0076 26.3375V21.4726C16.6794 21.3996 17.307 21.1005 17.7884 20.6238C18.2699 20.1472 18.5769 19.521 18.6597 18.8469H22.7441C22.8257 19.4868 23.1082 20.0838 23.5506 20.5512C23.993 21.0187 24.5722 21.3321 25.204 21.4459V26.3642C24.5722 26.4781 23.993 26.7915 23.5506 27.2589C23.1082 27.7263 22.8257 28.3234 22.7441 28.9633H18.6597C18.5769 28.2892 18.2699 27.663 17.7884 27.1863C17.307 26.7097 16.6794 26.4106 16.0076 26.3375ZM32.703 18.8469C32.7836 19.4889 33.0666 20.0881 33.5104 20.557C33.9541 21.0258 34.5355 21.3397 35.1695 21.4526V26.3642C34.5361 26.4758 33.9549 26.7884 33.511 27.2561C33.0671 27.7238 32.784 28.3221 32.703 28.9633H28.559C28.4787 28.3239 28.1975 27.727 27.7562 27.2595C27.3149 26.792 26.7367 26.4784 26.1057 26.3642V21.4459C26.7367 21.3318 27.3149 21.0181 27.7562 20.5506C28.1975 20.0831 28.4787 19.4862 28.559 18.8469H32.703ZM35.1695 42.8384V47.3635C34.8078 47.4557 34.4792 47.6484 34.2212 47.9194C33.9633 48.1905 33.7864 48.529 33.7108 48.8963H27.5511C27.4765 48.5306 27.3017 48.1933 27.0462 47.9224C26.7908 47.6515 26.4649 47.4579 26.1057 47.3635V42.8384C26.7372 42.7229 27.3157 42.4079 27.7569 41.9393C28.1981 41.4707 28.479 40.8728 28.559 40.2326H32.703C32.7817 40.87 33.0598 41.4658 33.4971 41.9342C33.9344 42.4025 34.5084 42.7191 35.1363 42.8384H35.1695ZM35.1695 51.3754V84.6504C34.8193 84.7501 34.5031 84.9445 34.2552 85.2124C34.0074 85.4804 33.8374 85.8115 33.7639 86.1698H27.5511C27.4765 85.8042 27.3017 85.4668 27.0462 85.1959C26.7908 84.925 26.4649 84.7314 26.1057 84.637V79.3855C26.5342 79.2574 26.9101 78.9935 27.1774 78.6333C27.4447 78.273 27.5891 77.8356 27.5891 77.3862C27.5891 76.9368 27.4447 76.4995 27.1774 76.1392C26.9101 75.779 26.5342 75.5151 26.1057 75.3869V70.0155C26.5342 69.8873 26.9101 69.6235 27.1774 69.2632C27.4447 68.903 27.5891 68.4656 27.5891 68.0162C27.5891 67.5668 27.4447 67.1294 27.1774 66.7692C26.9101 66.409 26.5342 66.1451 26.1057 66.0169V60.8854C26.5342 60.7572 26.9101 60.4934 27.1774 60.1331C27.4447 59.7729 27.5891 59.3355 27.5891 58.8861C27.5891 58.4367 27.4447 57.9993 27.1774 57.6391C26.9101 57.2788 26.5342 57.015 26.1057 56.8868V51.3954C26.4649 51.301 26.7908 51.1074 27.0462 50.8365C27.3017 50.5656 27.4765 50.2282 27.5511 49.8626H33.7108C33.7871 50.2221 33.9605 50.5535 34.212 50.8204C34.4635 51.0873 34.7833 51.2793 35.1363 51.3754H35.1695ZM28.5391 39.293C28.4588 38.6536 28.1776 38.0567 27.7363 37.5892C27.295 37.1217 26.7168 36.8081 26.0858 36.6939V32.5154C26.7178 32.4008 27.2967 32.0862 27.7381 31.6174C28.1795 31.1486 28.4602 30.5502 28.5391 29.9096H32.6831C32.7638 30.5516 33.0467 31.1509 33.4904 31.6197C33.9342 32.0886 34.5156 32.4024 35.1496 32.5154V36.6872C34.5156 36.8002 33.9342 37.114 33.4904 37.5829C33.0467 38.0517 32.7638 38.651 32.6831 39.293H28.5391ZM26.3576 93.2007H26.0858V88.6289C26.4451 88.5345 26.7709 88.3409 27.0263 88.07C27.2818 87.7992 27.4567 87.4618 27.5312 87.0961H33.7439C33.8175 87.4544 33.9875 87.7856 34.2353 88.0535C34.4832 88.3214 34.7994 88.5159 35.1496 88.6156V93.2273C34.4364 93.3557 33.7921 93.7356 33.3327 94.2988C32.8732 94.862 32.6288 95.5714 32.6433 96.2996C32.6431 96.969 32.8517 97.6217 33.24 98.1656H28.7048C29.0791 97.6216 29.276 96.9742 29.2684 96.3129C29.2898 95.5109 28.9941 94.733 28.4461 94.1497C27.898 93.5663 27.1423 93.2251 26.3444 93.2007H26.3576ZM42.9735 29.0033H38.4714C38.3906 28.3652 38.11 27.7696 37.6702 27.3024C37.2304 26.8351 36.6542 26.5206 36.0248 26.4042V21.4859C36.6542 21.3695 37.2304 21.055 37.6702 20.5878C38.11 20.1206 38.3906 19.5249 38.4714 18.8868H42.9735C43.0503 19.4982 43.3103 20.0716 43.7188 20.531C44.1274 20.9904 44.6652 21.3141 45.261 21.4593V26.4309C44.6652 26.576 44.1274 26.8997 43.7188 27.3591C43.3103 27.8186 43.0503 28.392 42.9735 29.0033ZM35.1363 15.3414C34.5024 15.4544 33.921 15.7682 33.4772 16.237C33.0334 16.7059 32.7505 17.3051 32.6698 17.9472H28.5258C28.4459 17.307 28.1649 16.7091 27.7237 16.2405C27.2825 15.7719 26.7041 15.4569 26.0725 15.3414V11.0829C27.3322 10.9369 28.4997 10.3476 29.3686 9.41941C30.2375 8.49122 30.7516 7.28396 30.8199 6.01137H31.788C31.8672 6.89502 32.241 7.7259 32.8487 8.36939C33.4564 9.01287 34.2625 9.43127 35.1363 9.5568V15.3414ZM25.1907 11.0829V15.3414C24.5584 15.4566 23.979 15.7713 23.5367 16.2399C23.0944 16.7084 22.8121 17.3065 22.7308 17.9472H18.6597C18.5761 17.2728 18.2689 16.6463 17.7878 16.1687C17.3067 15.6912 16.6796 15.3904 16.0076 15.3148V9.6101C16.9277 9.5295 17.7896 9.12374 18.4402 8.46489C19.0909 7.80605 19.4881 6.93675 19.5615 6.01137H20.4698C20.542 7.27388 21.0539 8.47058 21.9158 9.39177C22.7778 10.313 23.9348 10.8999 25.1841 11.0496L25.1907 11.0829ZM16.1534 93.2007H15.9744V88.6156C16.3246 88.5159 16.6409 88.3214 16.8887 88.0535C17.1366 87.7856 17.3065 87.4544 17.3801 87.0961H23.7386C23.8132 87.4618 23.9881 87.7992 24.2436 88.07C24.499 88.3409 24.8248 88.5345 25.1841 88.6289V93.4406C24.6465 93.6959 24.1932 94.1011 23.8782 94.608C23.5632 95.1148 23.3996 95.702 23.4071 96.2996C23.4045 96.9683 23.6109 97.6211 23.9972 98.1656H18.5006C18.8869 97.6211 19.0934 96.9683 19.0907 96.2996C19.1085 95.4976 18.8094 94.7212 18.2589 94.1403C17.7084 93.5595 16.9513 93.2216 16.1534 93.2007ZM43.3381 96.3129C43.3355 96.9817 43.5419 97.6344 43.9283 98.1789H37.9079C38.2914 97.633 38.4975 96.9812 38.4979 96.3129C38.5106 95.5883 38.268 94.8826 37.813 94.3204C37.358 93.7582 36.7199 93.3758 36.0115 93.2407V88.6556C36.4401 88.5274 36.816 88.2636 37.0833 87.9034C37.3506 87.5431 37.495 87.1057 37.495 86.6563C37.495 86.2069 37.3506 85.7695 37.0833 85.4093C36.816 85.049 36.4401 84.7852 36.0115 84.657V51.402C36.4401 51.2739 36.816 51.01 37.0833 50.6498C37.3506 50.2895 37.495 49.8521 37.495 49.4028C37.495 48.9534 37.3506 48.516 37.0833 48.1558C36.816 47.7955 36.4401 47.5316 36.0115 47.4035V42.8717C36.6414 42.754 37.2178 42.4382 37.6576 41.9698C38.0973 41.5015 38.3776 40.9049 38.4582 40.266H42.6552C42.7364 40.9307 43.0351 41.5494 43.5045 42.0247C43.9738 42.5 44.587 42.8051 45.2477 42.8917V93.4339C44.6842 93.6721 44.2034 94.0725 43.8659 94.5849C43.5285 95.0972 43.3494 95.6985 43.3514 96.3129H43.3381ZM6.32718 9.47016C7.10588 9.25279 7.80023 8.80221 8.31785 8.17837C8.83546 7.55454 9.15178 6.78705 9.22467 5.97806H11.9498C12.0193 6.83093 12.3627 7.63797 12.9284 8.27748C13.4941 8.917 14.2514 9.3543 15.0859 9.52346V15.3481C14.4985 15.4998 13.9699 15.8256 13.5691 16.2832C13.1682 16.7407 12.9136 17.3089 12.8382 17.9138H8.33618C8.2651 17.3538 8.04184 16.8243 7.69094 16.3834C7.34004 15.9425 6.87506 15.6074 6.34705 15.4147L6.32718 9.47016ZM6.32718 21.3526C6.85519 21.16 7.32017 20.8248 7.67107 20.384C8.02197 19.9431 8.24523 19.4136 8.31631 18.8535H12.8183C12.8954 19.4578 13.1507 20.0251 13.5513 20.4824C13.9519 20.9396 14.4794 21.2659 15.0661 21.4193V26.4108C14.4795 26.5621 13.9517 26.8869 13.5509 27.3432C13.1502 27.7995 12.895 28.3662 12.8183 28.97H8.31631C8.2448 28.4109 8.02127 27.8824 7.67034 27.4426C7.31942 27.0029 6.85468 26.669 6.32718 26.4775V21.3526ZM6.32718 32.4087C6.85559 32.2167 7.32096 31.8818 7.67196 31.4408C8.02296 30.9998 8.24595 30.4699 8.31631 29.9096H12.8183C12.8937 30.5146 13.1484 31.0827 13.5492 31.5403C13.9501 31.9979 14.4786 32.3237 15.0661 32.4754V36.6739C14.4149 36.7716 13.8132 37.0802 13.3525 37.5529C12.8917 38.0256 12.5971 38.6366 12.5133 39.293H8.05108C7.98333 38.7862 7.79159 38.3042 7.49305 37.8902C7.19451 37.4761 6.79849 37.143 6.34042 36.9205L6.32718 32.4087ZM6.32718 93.2473V42.5985C6.78504 42.374 7.18069 42.0394 7.47909 41.6244C7.77749 41.2094 7.96939 40.7267 8.0378 40.2193H12.5332C12.6149 40.8765 12.9088 41.4887 13.3699 41.9618C13.8311 42.4349 14.4339 42.7429 15.0859 42.8384V47.3302C14.6348 47.4413 14.2339 47.7013 13.9472 48.0686C13.6605 48.4359 13.5047 48.8893 13.5047 49.3561C13.5047 49.8229 13.6605 50.2763 13.9472 50.6436C14.2339 51.0109 14.6348 51.2709 15.0859 51.3821V84.6104C14.6574 84.7385 14.2815 85.0024 14.0142 85.3626C13.7469 85.7229 13.6025 86.1603 13.6025 86.6097C13.6025 87.0591 13.7469 87.4965 14.0142 87.8567C14.2815 88.2169 14.6574 88.4808 15.0859 88.609V93.3673C14.5242 93.6108 14.0469 94.0161 13.7141 94.532C13.3813 95.048 13.208 95.6514 13.2162 96.2663C13.2135 96.935 13.42 97.5877 13.8063 98.1323H8.19693C8.58325 97.5877 8.78967 96.935 8.78704 96.2663C8.78965 95.5542 8.54559 94.8635 8.09672 94.3126C7.64786 93.7617 7.02222 93.3851 6.32718 93.2473Z" fill="white"/>
</svg>
