<svg width="37" height="110" viewBox="0 0 37 110" fill="none" xmlns="http://www.w3.org/2000/svg">
<path d="M1.34308 29.4022V34.9979H14.2002C16.8126 35.5841 19.5254 35.5841 22.1378 34.9979H34.9949V29.4022H31.6588C33.9398 26.8415 35.4228 23.6878 35.9303 20.3189C36.4378 16.9499 35.9483 13.5083 34.5203 10.4062C33.0924 7.30396 30.7865 4.6726 27.8788 2.82706C24.9711 0.981524 21.5847 0 18.125 0C14.6653 0 11.2789 0.981524 8.37118 2.82706C5.46346 4.6726 3.15768 7.30396 1.72975 10.4062C0.301814 13.5083 -0.187786 16.9499 0.319701 20.3189C0.827187 23.6878 2.31025 26.8415 4.59123 29.4022H1.34308Z" fill="white"/>
<path d="M32.4099 35.0046L26.5701 68.6586L28.7626 35.0046H23.0784L20.04 81.7552H26.3265L34.44 35.0046H32.4099Z" fill="white"/>
<path d="M2.20924 35.0046L10.3295 81.7552H16.616L13.5709 35.0046H7.89344L10.0859 68.6586L4.23931 35.0046H2.20924Z" fill="white"/>
<path d="M28.4919 81.7618H8.15058V84.5597H28.4919V81.7618Z" fill="white"/>
<path d="M31.0227 87.3508V84.5596H5.62649V87.3508H3.3325C2.46605 91.0811 1.85568 94.8645 1.50547 98.6754C1.03703 102.432 0.833514 106.216 0.896432 110H35.7528L33.3167 87.3109L31.0227 87.3508Z" fill="white"/>
</svg>
