<svg width="42" height="114" viewBox="0 0 42 114" fill="none" xmlns="http://www.w3.org/2000/svg">
<path d="M39.9039 112V107.92H39.0843V81.5752H37.418V78.1354H36.7C35.9282 76.8713 35.0049 75.703 33.95 74.6556C33.2726 73.989 31.7351 73.2157 31.0374 72.4158C29.2432 70.4577 27.7528 68.2496 26.6143 65.8628C26.6143 65.8628 25.7676 59.5965 25.7676 58.3166C25.7676 55.3701 25.815 52.7369 25.2393 51.117C24.9751 50.3704 23.1666 50.357 23.1327 49.7504C23.1327 49.5238 23.1327 49.0838 23.1327 48.9105C23.1327 48.2438 24.4129 48.0505 24.5281 47.5772C24.8794 46.3988 25.4514 45.2955 26.2147 44.3241C28.9287 43.4173 31.3264 41.7728 33.1304 39.5809C34.9345 37.389 36.0711 34.7392 36.4088 31.9381L41.7869 33.4114V26.3651L36.3681 27.8583C35.8543 24.6445 34.288 21.6837 31.9075 19.4263C29.527 17.1689 26.4625 15.7384 23.1802 15.3524V14.3258H25.2122V12.9526H22.8211C23.155 12.9464 23.4728 12.8108 23.7056 12.5752C23.9383 12.3396 24.0671 12.0231 24.064 11.6945C24.0609 11.3659 23.9261 11.0518 23.6889 10.8206C23.4517 10.5893 23.1313 10.4596 22.7975 10.4596C22.4636 10.4596 22.1432 10.5893 21.906 10.8206C21.6688 11.0518 21.534 11.3659 21.5308 11.6945C21.5277 12.0231 21.6565 12.3396 21.8893 12.5752C22.122 12.8108 22.4399 12.9464 22.7737 12.9526H20.4572C20.701 11.5393 20.2946 9.85274 20.5656 9.37276C20.9571 8.8658 21.3898 8.39094 21.8593 7.95284C22.396 8.90182 23.0818 9.76128 23.8914 10.4994C24.995 11.325 26.2015 12.0083 27.4813 12.5326C28.4025 12.9326 27.6913 11.5726 27.6913 11.5726L24.6568 9.67273L23.2411 6.78625C23.4552 5.81635 23.5888 4.83094 23.6407 3.83974C24.8469 4.94523 26.1253 5.97182 27.4678 6.91291C28.1857 7.22622 27.4678 5.79963 27.4678 5.79963L23.6949 2.43317H19.9966L17.9239 3.27312C17.4701 3.45978 16.217 2.43317 14.9436 2.43317C13.6701 2.43317 15.1332 3.22646 15.1332 3.22646C16.0178 3.68783 16.94 4.07582 17.8901 4.38638C18.639 4.21165 19.371 3.97298 20.0779 3.67308L20.3014 7.15956C19.8158 7.85218 19.3985 8.5888 19.0551 9.35942C19.1855 10.4583 19.4006 11.5458 19.6986 12.6126C19.7342 12.7371 19.7772 12.8596 19.8273 12.9792H17.6055V14.3258H20.2337V15.3257C16.7745 15.5804 13.5085 16.9945 10.9805 19.3321C8.45237 21.6698 6.81491 24.7897 6.3412 28.1717L0.922419 26.6917V33.658L6.3412 32.1714C6.72263 34.9321 7.88056 37.5329 9.68425 39.6803C11.4879 41.8276 13.8656 43.4361 16.5489 44.3241C17.3136 45.301 17.8836 46.4116 18.2287 47.5972C18.3439 48.0638 19.6241 48.2638 19.6241 48.9304C19.6241 49.1238 19.6241 49.5437 19.6241 49.7704C19.6241 50.377 17.7816 50.3903 17.5175 51.137C16.9417 52.7569 16.9892 55.3901 16.9892 58.3366C16.9892 59.6165 16.1357 65.8828 16.1357 65.8828C15.0022 68.2723 13.5113 70.4811 11.7126 72.4357C11.0353 73.2357 9.47057 73.989 8.80676 74.6756C7.74872 75.722 6.82306 76.8904 6.04994 78.1554H5.37259V81.5952H3.6657V107.92H2.84609V112H0.875V114H41.875V112H39.9039ZM21.3784 25.8918C25.2084 26.0016 29.0285 26.3332 32.8188 26.8851H9.95827C13.7419 26.334 17.5552 26.0024 21.3784 25.8918ZM9.95827 33.1314H32.8459C29.0555 33.6832 25.2355 34.0149 21.4055 34.1247C17.5733 34.0151 13.7509 33.6834 9.95827 33.1314Z" fill="white"/>
<path d="M23.1666 1.18658C23.1666 0.951608 23.0957 0.72192 22.9629 0.526643C22.8301 0.331366 22.6415 0.179289 22.4208 0.0896773C22.2001 6.57401e-05 21.9573 -0.0230328 21.7232 0.0232952C21.4891 0.0696233 21.2743 0.1833 21.106 0.349916C20.9377 0.516532 20.8233 0.72858 20.7776 0.959194C20.7318 1.18981 20.7567 1.42859 20.849 1.64529C20.9413 1.86199 21.0969 2.04687 21.296 2.17645C21.4952 2.30603 21.7289 2.37449 21.9677 2.37317C22.1257 2.37318 22.2822 2.34244 22.4281 2.28273C22.574 2.22301 22.7064 2.13549 22.8179 2.02521C22.9293 1.91494 23.0175 1.78409 23.0773 1.64016C23.1372 1.49624 23.1675 1.34209 23.1666 1.18658Z" fill="white"/>
</svg>
