<svg width="52" height="110" viewBox="0 0 52 110" fill="none" xmlns="http://www.w3.org/2000/svg">
<path d="M49.4076 29.52H51.625V23.9804H48.4325C48.4725 23.4218 48.4992 22.8499 48.4992 22.278C48.4992 16.3695 46.142 10.703 41.946 6.52507C37.75 2.34714 32.059 0 26.125 0C20.1909 0 14.5 2.34714 10.304 6.52507C6.10798 10.703 3.75072 16.3695 3.75072 22.278C3.75072 22.8499 3.75071 23.4218 3.82417 23.9804H0.625V29.52H2.84236C2.84236 29.52 10.9239 42.2151 14.9178 53.1147C20.448 68.2039 12.8206 87.0703 12.8206 87.0703H5.86791V105.265L1.43312 110H50.6966L46.2618 105.265H46.3153V87.0703H39.4293C39.4293 87.0703 31.802 68.2039 37.3388 53.1147C41.3328 42.2151 49.4076 29.52 49.4076 29.52ZM26.125 20.3295C33.2447 20.3295 43.6036 21.8657 43.6036 21.8657H8.64631C8.64631 21.8657 19.0053 20.3295 26.125 20.3295ZM43.6036 31.5217C43.6036 31.5217 33.2447 33.0512 26.125 33.0512C19.0053 33.0512 8.64631 31.5217 8.64631 31.5217H43.6036ZM19.2591 87.0703C20.6169 80.0202 21.108 72.8318 20.7218 65.6635C21.2154 66.6718 21.9838 67.5218 22.9391 68.1163C23.8945 68.7109 24.9984 69.0261 26.125 69.0261C27.2516 69.0261 28.3555 68.7109 29.3109 68.1163C30.2662 67.5218 31.0346 66.6718 31.5282 65.6635C31.1422 72.8321 31.6356 80.0207 32.9976 87.0703H19.2591ZM21.009 63.0101C21.009 62.0026 21.309 61.0177 21.8712 60.18C22.4333 59.3423 23.2324 58.6894 24.1672 58.3039C25.102 57.9183 26.1306 57.8174 27.123 58.014C28.1155 58.2105 29.0271 58.6957 29.7426 59.4081C30.4581 60.1205 30.9453 61.0282 31.1427 62.0163C31.3401 63.0045 31.2388 64.0287 30.8515 64.9595C30.4643 65.8903 29.8086 66.6859 28.9673 67.2456C28.126 67.8054 27.1368 68.1041 26.125 68.1041C24.7681 68.1041 23.4669 67.5674 22.5074 66.6121C21.548 65.6568 21.009 64.3611 21.009 63.0101ZM31.9423 61.454C31.6073 60.1717 30.8543 59.0364 29.8015 58.226C28.7488 57.4156 27.4557 56.9759 26.125 56.9759C24.7943 56.9759 23.5012 57.4156 22.4485 58.226C21.3957 59.0364 20.6427 60.1717 20.3077 61.454C19.8006 57.1114 18.5752 52.8824 16.681 48.9384C14.9645 45.5468 13.1011 42.0887 11.4114 39.0563C15.4861 42.6016 20.7137 44.5554 26.125 44.5554C31.5362 44.5554 36.7639 42.6016 40.8386 39.0563C39.1555 42.0887 37.2921 45.5468 35.5689 48.9384C33.6655 52.8808 32.431 57.1099 31.9156 61.454H31.9423Z" fill="white"/>
<path d="M27.1021 66.1277C28.8672 65.5954 29.8647 63.7391 29.3301 61.9816C28.7955 60.224 26.9312 59.2308 25.1661 59.7631C23.4009 60.2954 22.4034 62.1517 22.938 63.9092C23.4726 65.6668 25.3369 66.66 27.1021 66.1277Z" fill="white"/>
</svg>
