<svg width="56" height="114" viewBox="0 0 56 114" fill="none" xmlns="http://www.w3.org/2000/svg">
<path d="M47.854 85.4866H44.781L42.5763 80.6688H36.2133V78.1798H35.1618C35.1618 78.1798 37.5836 68.5909 36.3761 58.7016C35.4196 50.8209 28.7852 44.3215 26.1192 42.0193C28.6282 36.9094 32.11 32.3201 36.3761 28.5H31.6275L30.6846 25.1636L31.3629 22.8881C35.2771 22.768 42.3457 21.9872 48.1796 18.3171C54.1492 14.567 56.9577 8.21435 55.4924 6.19246C54.0271 4.17057 49.2582 1.08769 49.2582 1.08769L28.3781 0L7.49802 1.08769C7.49802 1.08769 2.74946 4.17057 1.26384 6.19246C-0.221782 8.21435 2.62055 14.567 8.5766 18.3171C14.4106 21.9872 21.4656 22.768 25.3933 22.8881L26.0717 25.1636L25.1287 28.5H17.8702C17.8702 28.5 12.4433 42.2796 14.0035 56.6063C15.5638 70.933 23.3921 78.2065 23.3921 78.2065H20.9432V80.6955H14.5191L12.2805 85.4866H9.10575L4.7167 110.664H3.06827V114H53.9457V110.664H52.1956L47.854 85.4866ZM23.1344 50.9276C23.4936 49.0601 24.011 47.2253 24.681 45.4425C26.8586 48.9992 30.7863 56.6797 29.3482 63.5995C28.7039 66.6989 27.7355 69.7245 26.4584 72.628C24.1248 67.3764 21.5266 59.1287 23.1344 50.9276Z" fill="white"/>
</svg>
