<svg width="43" height="110" viewBox="0 0 43 110" fill="none" xmlns="http://www.w3.org/2000/svg">
<path d="M38.6958 5.90619L42.875 0H0.875L5.05419 5.90619C5.05419 5.90619 4.79928 16.3335 10.8434 22.3329C11.1184 22.6059 11.3867 22.859 11.655 23.0987L9.01204 33.7524V33.859L11.0245 69.6156H9.08582V71.7131H9.75664L6.40255 108.455H5.59751V110H38.2463V108.455H37.4413L34.0739 71.7131H34.7111V69.6023H33.1414L35.8247 33.8456V33.7591L33.0206 22.5061H32.8127L32.9536 22.3662C38.9507 16.3336 38.6958 5.90619 38.6958 5.90619ZM22.2003 35.0375L18.7926 27.3469C19.7857 27.6663 20.8286 27.8061 21.8716 27.7597C23.1879 27.8082 24.4998 27.5814 25.7221 27.0938L22.2003 35.0375ZM14.1505 25.0962L11.38 30.8826L12.8357 24.1174C13.2918 24.477 13.7279 24.8033 14.1572 25.1029L14.1505 25.0962ZM11.8496 33.7524H11.7758L15.0226 25.6822C15.6853 26.0888 16.3756 26.4493 17.0887 26.7609L20.4428 35.0708L18.7791 69.6156H16.5185L11.8496 33.7524ZM25.6282 69.6156L23.9646 35.0708L27.4596 26.4147C28.1801 26.0499 28.8769 25.6407 29.5458 25.1895L33.0005 33.7857H32.9334L27.6206 69.6489L25.6282 69.6156ZM33.3896 30.9092L30.3575 24.5636C30.8204 24.2173 31.2966 23.8378 31.7796 23.405L33.3896 30.9092Z" fill="white"/>
</svg>
