<svg width="42" height="114" viewBox="0 0 42 114" fill="none" xmlns="http://www.w3.org/2000/svg">
<path d="M8.32098 96.3333L0.125 114H41.125L32.9223 96.3333C32.9223 96.3333 27.799 80.0008 27.799 57.5104C27.799 35.02 40.2232 14.8113 40.2232 14.8113H37.7651C37.7651 14.8113 37.3042 15.5585 36.6362 16.9396C36.6362 16.6327 36.6362 16.3257 36.6362 16.0122C36.6362 11.7655 34.9472 7.69273 31.9408 4.68987C28.9343 1.687 24.8567 0 20.605 0C16.3532 0 12.2756 1.687 9.26914 4.68987C6.2627 7.69273 4.57368 11.7655 4.57368 16.0122C4.57368 16.2968 4.57368 16.5771 4.57368 16.8528C3.90571 15.5185 3.4782 14.7779 3.4782 14.7779H1.02008C1.02008 14.7779 13.451 35.0133 13.451 57.4771C13.451 79.9408 8.36108 96.3333 8.36108 96.3333H8.32098ZM32.1074 27.2007C28.9679 35.3469 25.6882 46.5487 25.6882 57.6906C25.7148 70.7386 27.437 83.728 30.8115 96.3333H26.0957C24.0527 83.5534 23.0253 70.6322 23.023 57.6906C23.0715 48.772 24.0294 39.8816 25.8819 31.157C28.2368 30.3397 30.3685 28.985 32.1074 27.2007ZM15.6019 57.6906C15.6019 46.5554 12.3355 35.4003 9.20271 27.2607C10.9235 29.0132 13.0268 30.3444 15.348 31.1504C17.2131 39.9004 18.1777 48.8179 18.227 57.7639C18.2203 70.6806 17.1974 83.5767 15.1677 96.3333H10.4919C13.8643 83.7279 15.582 70.7382 15.6019 57.6906Z" fill="white"/>
</svg>
