<svg width="46" height="110" viewBox="0 0 46 110" fill="none" xmlns="http://www.w3.org/2000/svg">
<path d="M45.375 106.218H0.375V110H45.375V106.218Z" fill="white"/>
<path d="M41.2279 85.2751H3.8575V106.218H41.2279V85.2751Z" fill="white"/>
<path d="M26.8659 38.7354H19.2828V87.5991H26.8659V38.7354Z" fill="white"/>
<path d="M15.3285 77.9502L10.1047 85.2751V37.0507L15.3285 44.1358V77.9502Z" fill="white"/>
<path d="M17.0963 77.9502L13.554 85.2751V37.0507L17.0963 44.1358V77.9502Z" fill="white"/>
<path d="M31.2523 33.4548H14.8965V34.8865H31.2523V33.4548Z" fill="white"/>
<path d="M22.9448 39.0417H19.1499C19.1499 39.0417 17.8207 37.8165 16.9302 36.9641C16.3491 36.2535 15.9539 35.409 15.7804 34.5069H22.9448V39.0417Z" fill="white"/>
<path d="M23.0777 35.4259C32.8412 35.4259 40.756 27.4955 40.756 17.7129C40.756 7.93035 32.8412 0 23.0777 0C13.3142 0 5.39937 7.93035 5.39937 17.7129C5.39937 27.4955 13.3142 35.4259 23.0777 35.4259Z" fill="white"/>
<path d="M30.7472 77.3842L35.9709 84.7091V36.4913L30.7472 43.5698V77.3842Z" fill="white"/>
<path d="M28.9727 77.3842L32.5217 84.7091V36.4913L28.9727 43.5698V77.3842Z" fill="white"/>
<path d="M15.7804 74.3477H30.2886V46.1269H15.7804V74.3477Z" fill="white"/>
<path d="M22.9448 39.3214H26.733C26.733 39.3214 28.102 38.0961 28.9527 37.2371C29.5375 36.5313 29.9331 35.688 30.1025 34.7866H22.9448V39.3214Z" fill="white"/>
</svg>
