<?xml version="1.0" encoding="utf-8"?>
<!-- Generator: Adobe Illustrator 25.4.1, SVG Export Plug-In . SVG Version: 6.00 Build 0)  -->
<svg version="1.1" id="Camada_1" xmlns="http://www.w3.org/2000/svg" xmlns:xlink="http://www.w3.org/1999/xlink" x="0px" y="0px"
	 viewBox="0 0 17 15" style="enable-background:new 0 0 17 15;" xml:space="preserve">
<style type="text/css">
	.st0{fill:#FFFFFF;}
</style>
<path class="st0" d="M14.6,6.2c-1.2,0-2.4-0.4-3.3-1.1V10c0,2.4-2,4.4-4.4,4.4s-4.4-2-4.4-4.4c0-2.4,2-4.4,4.4-4.4
	c0.2,0,0.4,0,0.6,0v2.4C6.4,7.8,5.2,8.4,4.9,9.4c-0.3,1.1,0.3,2.2,1.3,2.5s2.2-0.3,2.5-1.3c0.1-0.2,0.1-0.4,0.1-0.6V0.5h2.4
	c0,0.2,0,0.4,0.1,0.6l0,0C11.5,2,12,2.8,12.8,3.3c0.5,0.4,1.2,0.5,1.8,0.5V6.2z"/>
</svg>
