<?xml version="1.0" encoding="utf-8"?>
<!-- Generator: Adobe Illustrator 25.4.1, SVG Export Plug-In . SVG Version: 6.00 Build 0)  -->
<svg version="1.1" id="Camada_1" xmlns="http://www.w3.org/2000/svg" xmlns:xlink="http://www.w3.org/1999/xlink" x="0px" y="0px"
	 viewBox="0 0 17 15" style="enable-background:new 0 0 17 15;" xml:space="preserve">
<style type="text/css">
	.st0{fill:#FFFFFF;}
</style>
<path class="st0" d="M11.8,7c-0.1,0-0.1-0.1-0.2-0.1c-0.1-2-1.2-3.1-3-3.1c0,0,0,0,0,0c-1.1,0-2,0.5-2.5,1.3l1,0.7
	C7.5,5.2,8.1,5,8.6,5c0,0,0,0,0,0c0.6,0,1,0.2,1.3,0.5c0.2,0.2,0.3,0.6,0.4,1C9.9,6.5,9.3,6.4,8.7,6.5C7,6.6,5.9,7.6,6,8.9
	c0,0.7,0.4,1.3,1,1.7c0.5,0.3,1.2,0.5,1.8,0.5c0.9,0,1.6-0.4,2.1-1c0.4-0.5,0.6-1.1,0.7-1.9c0.4,0.3,0.7,0.6,0.9,1
	c0.3,0.7,0.3,1.8-0.6,2.7c-0.8,0.8-1.8,1.2-3.2,1.2c-1.6,0-2.9-0.5-3.7-1.6c-0.8-1-1.1-2.3-1.2-4.1c0-1.8,0.4-3.1,1.2-4.1
	c0.8-1,2-1.5,3.7-1.6c1.6,0,2.9,0.5,3.7,1.6c0.4,0.5,0.7,1.1,0.9,1.9L14.4,5c-0.2-0.9-0.6-1.7-1.2-2.3c-1.1-1.3-2.6-2-4.6-2h0
	c-2,0-3.5,0.7-4.6,2C3.1,3.8,2.6,5.5,2.6,7.5v0v0c0,2,0.5,3.7,1.4,4.8c1,1.3,2.6,2,4.6,2h0c1.8,0,3-0.5,4.1-1.5
	c1.4-1.4,1.3-3,0.9-4.1C13.2,8,12.6,7.4,11.8,7z M8.7,9.9c-0.7,0-1.5-0.3-1.6-1c0-0.5,0.4-1.1,1.6-1.2c0.1,0,0.3,0,0.4,0
	c0.4,0,0.9,0,1.2,0.1C10.3,9.6,9.4,9.9,8.7,9.9z"/>
</svg>
