<?xml version="1.0" encoding="utf-8"?>
<!-- Generator: Adobe Illustrator 25.4.1, SVG Export Plug-In . SVG Version: 6.00 Build 0)  -->
<svg version="1.1" id="Camada_1" xmlns="http://www.w3.org/2000/svg" xmlns:xlink="http://www.w3.org/1999/xlink" x="0px" y="0px"
	 viewBox="0 0 252.5 281.2" style="enable-background:new 0 0 252.5 281.2;" xml:space="preserve">
<style type="text/css">
	.st0{fill-rule:evenodd;clip-rule:evenodd;fill:#FFFFFF;}
</style>
<g id="g3246_00000010282957790406334170000016324230821181566392_" transform="translate(220.968, 51.6129)">
	<g>
		<path id="path3188_00000133527897556645182650000017835249820619427715_" class="st0" d="M-41.2,56.1c0.7-5.7,3.1-10.8,5.9-15.8
			l8.2,3.7l7.4-10l7.4,2.2c0.1,13.2-0.2,26.7,4.6,35.8l-3.7,4.6C-19.8,68.7-28.7,61.2-41.2,56.1z"/>
		<path id="path3190_00000127754882717312122940000011382951819052828815_" class="st0" d="M-54.9,69.7c-16.3-0.1-4.5-19.2-2.1-26.5
			c2.1-6.6-1.1-19.8-13.6-24.5V2.1c24.6,7.1,27.4,23.6,41.5,16v8.3C-51.2,49-41.5,69.6-54.9,69.7z"/>
		<path id="path3192_00000161604495571383940660000018218725969625577872_" class="st0" d="M-120.6,33.2c24.2-6.1,42.4-4.2,59.4-0.8
			c2.4,7.1,0.3,12-2,16.8c-16.6-2.7-34.5-3.4-55.9,2.3C-122.8,46-123.1,39.9-120.6,33.2z"/>
		<path id="path3194_00000171698281364359063520000004377297330360727212_" class="st0" d="M-106.3,18.8c-29,4.9-22.5,39.3,0,48.6
			v30c-63.8-18.4-52.2-87.7,0-94.8V18.8z"/>
		<path id="path3196_00000015333856164721971830000003316379662442227621_" class="st0" d="M-74.9,126.6c-8.6,1.2-17.6,1-26.8,0v-75
			c8.9-0.9,17.9-1.2,26.8,0V126.6z"/>
		<path id="path3202_00000071550541663480295560000013393940643804834457_" class="st0" d="M-195.7,89.2c15.5-7.5,19-24,41.6-40.6
			c0.6,7.7,1.5,15.2,4.8,20.8c-9.6,13.9-8.9,27,5.4,43c-3.3,7.6-7.4,13.1-11.8,17.6C-175.9,117.9-180.5,102.3-195.7,89.2z"/>
		<path id="path3204_00000035511639219798656960000010750278076795851421_" class="st0" d="M-123.5,144.5c5.8-6.4,7.4-11,9.8-16.1
			c15.3,3.2,33.1,4.5,59.7-0.9c2.8,5.6,1.7,10.8,0.8,16.1C-69,149.3-98.4,150.6-123.5,144.5z"/>
		<path id="path3206_00000103233343884838490410000003564296169721767850_" class="st0" d="M-167.5,142.1l2,8.5l11.8,0.8
			c13.6,9.6,28.1,18.6,47.8,24.4v-16.6c-10.7-1.8-17.6-7.2-22.7-14.2c15.2-16.4,18.3-36.9,8.7-41.1c-12.8-5.6-18.5,7.5-25.9,19.4
			C-150.7,130.9-157.6,138.6-167.5,142.1z"/>
		<path id="path3208_00000178891183610377623550000004364177243288956306_" class="st0" d="M-74.8,1.6c0.1-12.7,9.8-11.2,14.4-6.6
			C-61.1-20.9-74-22.8-80.2-17c-1.8-3-4.2-5.3-8-7.2c-3.4,1.6-6.1,4-8.2,7c-5.8-5.3-19.2-4-19.8,12c4.9-4.3,14.2-5.8,14.2,6.9
			l0.1,24.3c8.7-0.6,17.7-0.7,27-0.1L-74.8,1.6z"/>
		<path id="path3216_00000085221787954059683020000008173550136931429786_" class="st0" d="M-74.8,176.4c0.1,12.7,9.8,11.2,14.4,6.6
			c-0.6,15.9-13.6,17.8-19.8,12.1c-1.8,3-4.2,5.3-8,7.2c-3.4-1.6-6.1-4-8.2-7c-5.8,5.3-19.2,4-19.8-12c4.9,4.3,14.2,5.8,14.2-6.9
			l0.1-24.3c8.7,0.6,17.7,0.7,27,0.1L-74.8,176.4z"/>
		<path id="path3218_00000114789283711810305690000017628243347008856483_" class="st0" d="M-70.9,79.4v28.7
			C-38,119.1-43.2,160-70.5,159v16.5c35.2-3.5,48.8-25.3,49.1-46.6C-21.2,104.6-40.4,87.3-70.9,79.4z"/>
		<path id="path3222_00000164506358230709789460000012178395472134663590_" class="st0" d="M-17.8,127.9c0-3.7,0.4-7.1-2.1-14.4
			l7.6-5l8.5,7C-7.1,120.5-12.2,124.4-17.8,127.9z"/>
	</g>
</g>
</svg>
