<?xml version="1.0" encoding="utf-8"?>
<!-- Generator: Adobe Illustrator 25.4.1, SVG Export Plug-In . SVG Version: 6.00 Build 0)  -->
<svg version="1.1" id="Camada_1" xmlns="http://www.w3.org/2000/svg" xmlns:xlink="http://www.w3.org/1999/xlink" x="0px" y="0px"
	 viewBox="0 0 17 15" style="enable-background:new 0 0 17 15;" xml:space="preserve">
<style type="text/css">
	.st0{fill:#FFFFFF;}
</style>
<g>
	<path class="st0" d="M12,3.3c-0.4,0-0.8,0.3-0.8,0.8c0,0.4,0.3,0.8,0.8,0.8c0.4,0,0.7-0.3,0.8-0.8C12.7,3.6,12.4,3.3,12,3.3z"/>
	<path class="st0" d="M8.5,4.1c-1.9,0-3.4,1.5-3.4,3.4s1.5,3.4,3.4,3.4s3.4-1.5,3.4-3.4C11.9,5.7,10.4,4.1,8.5,4.1z M8.5,9.9
		c-1.3,0-2.3-1.1-2.3-2.3c0-1.3,1.1-2.3,2.3-2.3c1.3,0,2.3,1.1,2.3,2.3C10.9,8.8,9.8,9.9,8.5,9.9z"/>
	<path class="st0" d="M15,5c0-2.2-1.8-4-4-4H6C3.8,1,2,2.8,2,5v5c0,2.2,1.8,4,4,4h5c2.2,0,4-1.8,4-4V5z M13.9,10
		c0,1.6-1.3,2.9-2.9,2.9H6c-1.6,0-2.9-1.3-2.9-2.9V5c0-1.6,1.3-2.9,2.9-2.9h5c1.6,0,2.9,1.3,2.9,2.9V10z"/>
</g>
</svg>
