<?xml version="1.0" encoding="utf-8"?>
<!-- Generator: Adobe Illustrator 25.4.1, SVG Export Plug-In . SVG Version: 6.00 Build 0)  -->
<svg version="1.1" id="Camada_1" xmlns="http://www.w3.org/2000/svg" xmlns:xlink="http://www.w3.org/1999/xlink" x="0px" y="0px"
	 viewBox="0 0 310.4 95" style="enable-background:new 0 0 310.4 95;" xml:space="preserve">
<style type="text/css">
	.st0{fill:#65383E;}
	.st1{fill-rule:evenodd;clip-rule:evenodd;fill:#FFFFFF;}
	.st2{fill-rule:evenodd;clip-rule:evenodd;fill:#E20613;}
	.st3{fill:#EFEC98;}
	.st4{fill:#FFFFFF;}
	.st5{fill:none;}
	.st6{fill:#E20613;}
</style>
<g>
	<g>
		<path class="st0" d="M121.5,46.2c-1.8,0-3.5-0.4-5-1.2s-2.6-1.9-3.5-3.4c-0.8-1.4-1.3-3-1.3-4.8s0.4-3.3,1.3-4.8
			c0.9-1.4,2-2.5,3.5-3.3s3.1-1.2,5-1.2c1.8,0,3.5,0.4,5,1.2c1.5,0.8,2.6,1.9,3.5,3.3c0.8,1.4,1.3,3,1.3,4.8s-0.4,3.4-1.3,4.8
			c-0.8,1.4-2,2.5-3.5,3.3C124.9,45.8,123.3,46.2,121.5,46.2z M121.5,43.9c1.3,0,2.5-0.3,3.6-0.9c1.1-0.6,1.9-1.4,2.5-2.5
			s0.9-2.3,0.9-3.6s-0.3-2.5-0.9-3.6s-1.5-1.9-2.5-2.5c-1.1-0.6-2.3-0.9-3.6-0.9s-2.6,0.3-3.6,0.9c-1.1,0.6-1.9,1.5-2.6,2.5
			c-0.6,1.1-0.9,2.2-0.9,3.6c0,1.3,0.3,2.5,0.9,3.6s1.5,1.9,2.6,2.5C118.9,43.6,120.1,43.9,121.5,43.9z M150.3,46.2
			c-1.8,0-3.5-0.4-5-1.2s-2.6-1.9-3.4-3.3c-0.8-1.4-1.3-3-1.3-4.8s0.4-3.4,1.3-4.8c0.8-1.4,2-2.5,3.5-3.3s3.1-1.2,5-1.2
			c1.4,0,2.7,0.2,3.9,0.7s2.2,1.2,3,2.1l-1.7,1.6c-1.4-1.4-3.1-2.2-5.1-2.2c-1.4,0-2.6,0.3-3.7,0.9c-1.1,0.6-2,1.5-2.6,2.5
			c-0.6,1.1-0.9,2.2-0.9,3.6c0,1.3,0.3,2.5,0.9,3.6c0.6,1.1,1.5,1.9,2.6,2.5s2.3,0.9,3.7,0.9c2,0,3.7-0.7,5.1-2.2l1.7,1.6
			c-0.8,0.9-1.9,1.7-3,2.1C153,46,151.7,46.2,150.3,46.2z M161,27.8h2.6v16h9.9V46H161V27.8z M183.7,46.2c-2.4,0-4.3-0.7-5.7-2.1
			c-1.4-1.4-2-3.4-2-6V27.8h2.6V38c0,3.9,1.7,5.9,5.1,5.9c1.7,0,2.9-0.5,3.8-1.4c0.9-1,1.3-2.4,1.3-4.4V27.8h2.5v10.4
			c0,2.6-0.7,4.6-2,6C188,45.5,186.1,46.2,183.7,46.2z M209,36.5c1.1,0.3,1.9,0.8,2.5,1.6s0.9,1.7,0.9,2.9c0,1.6-0.6,2.8-1.8,3.6
			c-1.2,0.9-2.9,1.3-5.2,1.3h-8.7V27.8h8.2c2.1,0,3.7,0.4,4.8,1.3c1.1,0.8,1.7,2,1.7,3.5c0,1-0.2,1.8-0.7,2.5
			C210.3,35.7,209.8,36.2,209,36.5z M199.3,29.9v5.8h5.3c1.3,0,2.4-0.2,3.1-0.7c0.7-0.5,1.1-1.2,1.1-2.2c0-1-0.4-1.7-1.1-2.2
			c-0.7-0.5-1.7-0.8-3.1-0.8h-5.3V29.9z M205.3,43.9c1.5,0,2.6-0.2,3.3-0.7s1.1-1.3,1.1-2.3c0-2-1.5-3-4.5-3h-6V44L205.3,43.9
			L205.3,43.9z M229.7,43.7V46h-13.2V27.8h12.9V30h-10.3v5.6h9.1v2.2h-9.1v5.9H229.7z"/>
		<path class="st0" d="M112.3,50.6h7.7c1.9,0,3.5,0.3,4.8,1.1c1.4,0.7,2.5,1.6,3.3,3c0.8,1.3,1.2,2.7,1.2,4.5c0,1.6-0.4,3.2-1.2,4.5
			c-0.8,1.3-1.9,2.3-3.3,3c-1.4,0.7-3.1,1-4.8,1h-7.7V50.6z M119.9,64.3c1.6,0,3.1-0.4,4.1-1.4c1-1,1.5-2.2,1.5-3.8
			c0-1.6-0.5-2.8-1.5-3.8c-1-1-2.3-1.4-4.1-1.4h-3.6v10.5H119.9z M140.4,67.8c-1.8,0-3.4-0.3-4.7-1.1c-1.4-0.8-2.5-1.8-3.3-3.1
			c-0.8-1.3-1.2-2.8-1.2-4.5c0-1.6,0.4-3.2,1.2-4.5c0.8-1.3,1.9-2.4,3.3-3.2c1.4-0.8,3-1.1,4.7-1.1s3.3,0.3,4.7,1.1
			c1.4,0.8,2.5,1.8,3.3,3.2c0.8,1.3,1.2,2.8,1.2,4.5c0,1.6-0.4,3.2-1.2,4.5s-1.9,2.4-3.3,3.1C143.7,67.4,142.2,67.8,140.4,67.8z
			 M140.4,64.5c1,0,1.9-0.2,2.7-0.7c0.8-0.4,1.4-1.1,1.9-2c0.4-0.8,0.7-1.8,0.7-2.8s-0.2-2-0.7-2.8c-0.4-0.8-1.1-1.4-1.9-1.9
			c-0.8-0.4-1.8-0.7-2.7-0.7c-1,0-1.9,0.2-2.7,0.7c-0.8,0.4-1.4,1.1-1.9,1.9c-0.4,0.8-0.7,1.8-0.7,2.8s0.2,2,0.7,2.8
			c0.4,0.8,1.1,1.4,1.9,2C138.6,64.3,139.5,64.5,140.4,64.5z M166.8,50.6c1.5,0,2.8,0.2,3.9,0.8c1.1,0.5,2,1.2,2.5,2.1
			c0.5,0.9,0.9,2,0.9,3.3c0,1.2-0.3,2.3-0.9,3.3c-0.5,0.9-1.4,1.6-2.5,2.1s-2.4,0.8-3.9,0.8h-3.4v4.7h-3.9v-17H166.8z M166.6,59.7
			c1.2,0,2.1-0.2,2.6-0.8c0.7-0.5,0.9-1.2,0.9-2.2c0-1-0.3-1.6-0.9-2.2c-0.7-0.5-1.5-0.8-2.6-0.8h-3.2v5.9H166.6z M185.4,67.8
			c-1.8,0-3.4-0.3-4.7-1.1c-1.4-0.8-2.5-1.8-3.3-3.1c-0.8-1.3-1.2-2.8-1.2-4.5c0-1.6,0.4-3.2,1.2-4.5c0.8-1.3,1.9-2.4,3.3-3.2
			c1.4-0.8,3-1.1,4.7-1.1s3.3,0.3,4.7,1.1c1.4,0.8,2.5,1.8,3.3,3.2c0.8,1.3,1.2,2.8,1.2,4.5c0,1.6-0.4,3.2-1.2,4.5
			c-0.8,1.3-1.9,2.4-3.3,3.1C188.8,67.5,187.1,67.8,185.4,67.8z M185.4,64.5c1,0,1.9-0.2,2.7-0.7c0.8-0.4,1.4-1.1,1.9-2
			c0.4-0.8,0.7-1.8,0.7-2.8s-0.2-2-0.7-2.8c-0.4-0.8-1.1-1.4-1.9-1.9c-0.8-0.4-1.8-0.7-2.7-0.7c-1,0-1.9,0.2-2.7,0.7
			c-0.8,0.4-1.4,1.1-1.9,1.9c-0.4,0.8-0.7,1.8-0.7,2.8s0.2,2,0.7,2.8c0.4,0.8,1.1,1.4,1.9,2C183.5,64.3,184.4,64.5,185.4,64.5z
			 M213.3,50.6l-7.3,16.9h-3.8l-7.3-16.9h4.3l5.1,12l5.3-12H213.3z M222.7,67.8c-1.8,0-3.4-0.3-4.7-1.1c-1.4-0.8-2.5-1.8-3.3-3.1
			c-0.8-1.3-1.2-2.8-1.2-4.5c0-1.6,0.4-3.2,1.2-4.5c0.8-1.3,1.9-2.4,3.3-3.2c1.4-0.8,3-1.1,4.7-1.1s3.3,0.3,4.7,1.1
			c1.4,0.8,2.5,1.8,3.3,3.2c0.8,1.3,1.2,2.8,1.2,4.5c0,1.6-0.4,3.2-1.2,4.5c-0.8,1.3-1.9,2.4-3.3,3.1
			C226,67.5,224.5,67.8,222.7,67.8z M222.7,64.5c1,0,1.9-0.2,2.7-0.7c0.8-0.4,1.4-1.1,1.9-2c0.4-0.8,0.7-1.8,0.7-2.8s-0.2-2-0.7-2.8
			c-0.4-0.8-1.1-1.4-1.9-1.9s-1.8-0.7-2.7-0.7c-1,0-1.9,0.2-2.7,0.7c-0.8,0.4-1.4,1.1-1.9,1.9c-0.4,0.8-0.7,1.8-0.7,2.8
			s0.2,2,0.7,2.8c0.4,0.8,1.1,1.4,1.9,2C220.7,64.3,221.6,64.5,222.7,64.5z"/>
	</g>
	<g id="XMLID_848_">
		<path id="XMLID_920_" class="st1" d="M48.9,1.5c25.4,0,46,20.6,46,46s-20.6,46-46,46s-46-20.6-46-46C2.9,22.1,23.5,1.5,48.9,1.5"
			/>
		<path id="XMLID_919_" class="st2" d="M48.9,2.6c24.8,0,44.9,20.1,44.9,44.9S73.7,92.4,48.9,92.4S4,72.3,4,47.5S24.1,2.6,48.9,2.6"
			/>
		<path id="XMLID_918_" class="st1" d="M48.9,3.5c24.3,0,44,19.7,44,44s-19.7,44-44,44s-44-19.7-44-44C4.9,23.2,24.6,3.5,48.9,3.5"
			/>
		<path id="XMLID_917_" class="st2" d="M48.9,12c19.6,0,35.5,15.9,35.5,35.4c0,19.6-15.9,35.4-35.5,35.4S13.4,66.9,13.4,47.4
			C13.5,27.9,29.4,12,48.9,12"/>
		<path id="XMLID_916_" class="st1" d="M48.9,13C68,13,83.5,28.4,83.5,47.5C83.5,66.5,68,82,48.9,82S14.3,66.5,14.3,47.5
			C14.4,28.4,29.9,13,48.9,13"/>
		<path id="XMLID_915_" class="st2" d="M48.9,13.9c18.6,0,33.6,15,33.6,33.6S67.4,81.1,48.9,81.1c-18.6,0-33.6-15.1-33.6-33.6
			C15.3,28.9,30.4,13.9,48.9,13.9"/>
		<path id="XMLID_914_" class="st3" d="M47.4,58.8c-2.3-0.2-4.1-0.6-4.5-0.7c-0.5,1.4-1.3,3-2.6,4.4c2.3,0.6,6.9,1.3,10.8,1.2
			c3.7-0.1,5-0.4,8.4-1.3c0,0,0.4-1.2,0.4-2.2s-0.2-1.7-0.4-2.3c-1.5,0.4-2.9,0.7-4.8,0.9C53.5,58.9,50.2,59,47.4,58.8z"/>
		<path id="XMLID_913_" class="st4" d="M63.3,36.2c-0.5,1.3-0.6,2.2-0.6,2.2c5.1,2.2,7.4,5,7.4,5h1.2l0.6-0.6
			c-1.8-3.2-1.2-9.8-1.2-9.8l-2-0.7l-2,2.7c-0.8-0.4-1.5-0.7-2.3-1C64.4,34.1,63.8,34.9,63.3,36.2z"/>
		<path id="XMLID_912_" class="st4" d="M70.6,52.7c-0.7,0.5-2.4,1.5-2.4,1.5c0.7,1.4,0.7,2.8,0.7,3.9c2.7-1.9,4.1-3.6,4.1-3.6
			L70.6,52.7z"/>
		<path id="XMLID_911_" class="st4" d="M34.8,53.9c0,0-0.2-0.2-0.3-0.2c-5.9-5.8-1.2-11.5-1.3-11.6c-1.1-2.5-1.1-4.9-1-5.8l0,0
			c-0.1,0-0.2,0.2-0.2,0.2c-3.7,2.7-5.9,5.7-7.1,7.2c-2.4,3-4.2,3.9-4.2,3.9s1.8,1.6,3.5,3.9c0.9,1.2,3.2,4.4,7.4,7.2
			c0.6-0.7,1.3-1.5,2-2.7C33.8,55.6,34.7,54.2,34.8,53.9z"/>
		<line id="XMLID_910_" class="st5" x1="58.5" y1="32.7" x2="58.5" y2="32.8"/>
		<path id="XMLID_909_" class="st4" d="M45,66.5c-4.3-0.6-6.2-3.9-6.2-3.9c1.6-1.5,2.4-3,3.2-4.7c0.4-0.9,0.8-2.6,0.7-4
			c-0.1-1-0.6-2-1.9-2.6c-1.6-0.7-3.5-0.2-5.1,2.8C34.2,57,32.6,59,32.6,59s-0.9,1.2-2.3,2c-1.2,0.8-2,0.9-2,0.9l0.6,2.4l3.1,0.2
			c8.2,6.5,12.5,6.6,13,6.6V66.5z"/>
		<path id="XMLID_908_" class="st4" d="M65.7,51.5c-1.7-1.9-5-5.2-11-6.6v7.9c0.6,0.3,4.3,2,5.6,5l0,0c1.8,3.9-0.7,8.6-5.6,8.8v4.6
			c0.7,0,7.3-0.4,11.2-6C69.7,59.5,67.9,53.8,65.7,51.5z"/>
		<path id="XMLID_907_" class="st4" d="M62.6,28.1c0,0-5.9-4.3-7.8-4.3v4.6c0.4,0.2,3.1,1.2,3.7,3.9l0,0c0,0,0.2,1.1,0.1,2.3
			c-0.2,1.5-1.1,3.1-1.3,3.5c-1.2,1.9-0.1,4,1.7,3.9c1.4-0.1,2-1.1,2.4-2.3c0.2-0.5,0.4-2.1,1.6-4.8c1.2-2.8,3.2-4.5,3.2-4.5V28
			C66.1,28,64.4,29.3,62.6,28.1z"/>
		<path id="XMLID_906_" class="st4" d="M44,20.7c1.2,0,2.2,0.9,2.2,2.7v6.9c1.1-0.1,2.5-0.2,3.5-0.2c2.1,0,3.8,0.2,3.8,0.2v-6.9
			c0-1.4,0.6-2.4,1.8-2.7c1.3-0.3,2.1,0.7,2.1,0.7c-0.2-3.5-3.1-3.7-3.1-3.7c-1.8,0-2.3,0.8-2.3,0.8c-1-1.5-2.2-1.9-2.2-1.9
			s-1.3,0.4-2.2,1.9c0,0-0.5-0.8-2.3-0.8c0,0-3,0.2-3.1,3.8C42.3,21.5,42.9,20.7,44,20.7z"/>
		<path id="XMLID_905_" class="st4" d="M57.6,34.2c0.1-1.3-0.2-2.3-0.2-2.3s-2.3-0.5-3.5-0.6C52.6,31.1,51,31,49.3,31
			c-2.8,0.1-6.6,0.6-8.1,1.1c0,0-1.4,2.3-0.1,5.2c0,0,5-1.3,8.7-1.4c3.7-0.1,6,0.5,7.1,0.7C56.8,36.7,57.5,35.6,57.6,34.2z"/>
		<g id="XMLID_902_">
			<path id="XMLID_904_" class="st4" d="M55.4,74.1c-1.3-0.3-1.8-1.4-1.8-2.6v-6.9c-1.4,0.2-4.1,0.2-7.3-0.1v7c0,2-1.3,2.7-2.4,2.6
				c-1-0.1-1.5-0.8-1.5-0.8c0.1,3.7,3.1,3.9,3.1,3.9c1.8,0,2.2-0.8,2.2-0.8c0.9,1.5,2.3,1.9,2.3,1.9s1.3-0.4,2.2-1.9
				c0,0,0.5,0.8,2.3,0.8c0,0,3-0.2,3.1-3.9C57.5,73.3,56.8,74.4,55.4,74.1z"/>
			<path id="XMLID_903_" class="st4" d="M53.6,57.9V37.2c0,0-1.7-0.2-3.5-0.2c-2.1,0-3.8,0.3-3.8,0.3v20.5
				C47.3,57.9,51.2,58.1,53.6,57.9z"/>
		</g>
		<path id="XMLID_901_" class="st4" d="M45,41.8c0,0-5.4-1.4-5.4-7c0-5.3,5.4-6.5,5.4-6.5v-4.5c0,0-11.2,2.2-12,12
			c-0.6,7.6,5.1,11.9,12,14V41.8z"/>
		<path id="XMLID_900_" class="st4" d="M47.4,58.8c-2.3-0.2-4.1-0.6-4.5-0.7c-0.5,1.4-1.3,3-2.6,4.4c2.3,0.6,6.9,1.3,10.8,1.2
			c3.7-0.1,5.2-0.4,8.5-1.3c0,0,0.5-1,0.4-2.6c-0.1-1.1-0.6-1.9-0.6-1.9c-1.5,0.4-2.9,0.7-4.8,0.9C53.5,58.9,50.2,59,47.4,58.8z"/>
		<g id="XMLID_861_">
			<path id="XMLID_898_" class="st6" d="M11.3,42.8l-0.8-0.9c0.5-0.4,0.8-0.9,0.9-1.5c0.1-0.4,0-0.6-0.2-0.6l0,0
				c-0.2,0-0.3,0.1-0.6,0.7c-0.4,1-0.9,1.7-1.9,1.6l0,0c-0.9-0.2-1.4-1-1.2-2.2c0.2-0.8,0.5-1.4,1-1.9l0.8,0.9
				c-0.4,0.4-0.7,0.8-0.7,1.3c-0.1,0.3,0.1,0.5,0.2,0.5l0,0c0.2,0,0.4-0.1,0.6-0.8c0.5-1.1,0.9-1.7,1.9-1.5l0,0
				c1,0.2,1.4,1.1,1.2,2.3C12.3,41.5,11.9,42.3,11.3,42.8z"/>
			<path id="XMLID_896_" class="st6" d="M11.8,37.2l0.4-1.3l1.3,0.4l-0.4,1.3L11.8,37.2z"/>
			<path id="XMLID_894_" class="st6" d="M12.6,31.5L12.6,31.5c-1.3-0.7-1.8-2.2-1.1-3.5c0.5-0.9,1.1-1.3,1.9-1.4l0.2,1.3
				c-0.4,0.1-0.8,0.3-1,0.7c-0.3,0.6,0,1.3,0.6,1.7l0,0c0.7,0.3,1.4,0.2,1.7-0.5c0.2-0.5,0.2-0.8,0-1.3l1.1-0.6
				c0.4,0.7,0.5,1.5,0,2.5C15.4,31.7,13.9,32.2,12.6,31.5z"/>
			<path id="XMLID_892_" class="st6" d="M16.6,26.4l0.8-1.1l1.1,0.8l-0.8,1.1L16.6,26.4z"/>
			<path id="XMLID_890_" class="st6" d="M17.3,19.7l0.9-1l3.7,3.3L21,23L17.3,19.7z"/>
			<path id="XMLID_888_" class="st6" d="M20.8,16l1-0.8L25,16l-1.6-2.1l1.1-0.9l3.1,3.9l-0.9,0.8l-3.4-0.8L25,19l-1.1,0.9L20.8,16z"
				/>
			<path id="XMLID_886_" class="st6" d="M29.3,11.5L28,12.2l-0.6-1.1l3.9-2l0.6,1.1l-1.3,0.7l1.7,3.3l-1.2,0.6L29.3,11.5z"/>
			<path id="XMLID_884_" class="st6" d="M34.6,7.8l3.8-1.2l0.3,1.1l-2.5,0.8l0.2,0.7l2.3-0.7l0.3,1l-2.3,0.7L37,11l2.5-0.8l0.3,1.1
				L36,12.6L34.6,7.8z"/>
			<path id="XMLID_881_" class="st6" d="M41.9,5.9l2.3-0.3c0.8-0.1,1.3,0,1.7,0.3c0.3,0.2,0.5,0.6,0.6,1.1l0,0
				c0.1,0.8-0.3,1.3-0.8,1.6l1.4,1.6l-1.6,0.2L44.3,9l-0.6,0.1l0.2,1.5l-1.4,0.2L41.9,5.9z M44.5,8c0.5-0.1,0.7-0.3,0.7-0.7l0,0
				c0-0.4-0.4-0.6-0.8-0.5l-0.9,0.1l0.1,1.2L44.5,8z"/>
			<path id="XMLID_879_" class="st6" d="M50,5.3l1.3,0.1l1.8,2.8l0.2-2.6l1.4,0.1l-0.4,5L53,10.5l-1.9-2.9l-0.2,2.7l-1.4-0.1L50,5.3
				z"/>
			<path id="XMLID_876_" class="st6" d="M60.1,6.8l1.3,0.4l0.6,5.4l-1.4-0.4l-0.1-1l-1.8-0.5l-0.6,0.8L56.7,11L60.1,6.8z M60.4,10.1
				l-0.1-1.5l-0.9,1.2L60.4,10.1z"/>
			<path id="XMLID_874_" class="st6" d="M65,11.1L65,11.1c0.7-1.3,2.2-1.8,3.5-1.1c0.9,0.5,1.3,1.1,1.4,1.9l-1.3,0.2
				c-0.1-0.4-0.3-0.8-0.7-1c-0.6-0.3-1.3,0-1.7,0.6l0,0c-0.3,0.7-0.2,1.4,0.4,1.7c0.5,0.2,0.8,0.2,1.3,0l0.6,1.1
				c-0.7,0.4-1.5,0.5-2.5,0C64.8,13.9,64.3,12.5,65,11.1z"/>
			<path id="XMLID_872_" class="st6" d="M73.2,13l1.1,0.8l-2.9,4L70.2,17L73.2,13z"/>
			<path id="XMLID_869_" class="st6" d="M75.3,17.8L75.3,17.8c1-1,2.7-1,3.7,0.1c1.1,1.1,1.1,2.7,0,3.7l0,0c-1,1-2.6,1-3.7-0.1
				C74.3,20.4,74.3,18.8,75.3,17.8z M78.1,20.6L78.1,20.6c0.5-0.5,0.6-1.3,0.1-1.9c-0.5-0.5-1.3-0.5-1.8,0l0,0
				c-0.5,0.5-0.6,1.3-0.1,1.8C76.8,21.1,77.6,21.1,78.1,20.6z"/>
			<path id="XMLID_867_" class="st6" d="M83.1,22.7l0.7,1.1L82.7,27l2.2-1.4l0.7,1.1l-4.2,2.7l-0.7-1l1.1-3.3l-2.3,1.5L79,25.4
				L83.1,22.7z"/>
			<path id="XMLID_864_" class="st6" d="M88.1,31.7l0.5,1.2l-3.9,3.8l-0.5-1.4l0.7-0.7l-0.7-1.8h-1l-0.5-1.4L88.1,31.7z M85.7,33.9
				l1.1-1h-1.5L85.7,33.9z"/>
			<path id="XMLID_862_" class="st6" d="M90.1,38.2l0.2,1.4l-3.7,0.7l0.4,2.4l-1.2,0.2l-0.7-3.7L90.1,38.2z"/>
		</g>
		<g id="XMLID_849_">
			<path id="XMLID_859_" class="st6" d="M38.7,84.5h-0.9v-1.1h1.5l1,0.3L39,88.5l-1.3-0.3L38.7,84.5z"/>
			<path id="XMLID_856_" class="st6" d="M42.5,88.7l0.7-0.9c0.3,0.3,0.6,0.5,1,0.5c0.6,0.1,0.9-0.3,1-0.9c-0.3,0.2-0.7,0.3-1.1,0.3
				c-1-0.1-1.6-0.8-1.5-1.7l0,0c0.1-1.1,1-1.7,2.2-1.6c0.7,0.1,1.1,0.3,1.5,0.7c0.3,0.4,0.5,1,0.4,1.9l0,0c-0.2,1.6-1.1,2.6-2.6,2.5
				C43.4,89.4,42.9,89.1,42.5,88.7z M45.4,86.2L45.4,86.2c0-0.4-0.2-0.7-0.6-0.8c-0.4,0-0.7,0.2-0.8,0.6l0,0c0,0.4,0.2,0.7,0.6,0.7
				C45.1,86.8,45.4,86.5,45.4,86.2z"/>
			<path id="XMLID_853_" class="st6" d="M49.4,87.2L49.4,87.2c-0.1-1.4,0.7-2.7,2.1-2.8c1.4-0.1,2.4,1,2.5,2.4l0,0
				c0.1,1.4-0.7,2.6-2.1,2.7C50.5,89.7,49.5,88.6,49.4,87.2z M52.6,87L52.6,87c-0.1-0.8-0.5-1.3-1-1.3s-0.9,0.6-0.8,1.4l0,0
				c0.1,0.8,0.5,1.3,1,1.3C52.4,88.4,52.7,87.8,52.6,87z"/>
			<path id="XMLID_850_" class="st6" d="M57.3,88.4l0.4-1.1c0.4,0.2,0.7,0.2,1.1,0.1c0.6-0.1,0.7-0.6,0.7-1.2
				c-0.2,0.3-0.5,0.5-0.9,0.7c-0.9,0.2-1.8-0.2-2-1.1l0,0c-0.3-1.1,0.4-2,1.5-2.2c0.7-0.2,1.2-0.1,1.6,0.2c0.4,0.3,0.8,0.7,1,1.6
				l0,0c0.4,1.6-0.1,2.8-1.6,3.2C58.4,88.7,57.8,88.6,57.3,88.4z M59.2,85L59.2,85c-0.1-0.4-0.4-0.6-0.9-0.5
				c-0.4,0.1-0.6,0.4-0.5,0.8l0,0c0.1,0.4,0.4,0.6,0.8,0.5S59.3,85.3,59.2,85z"/>
		</g>
	</g>
</g>
</svg>
